<svg xmlns="http://www.w3.org/2000/svg" xmlns:xlink="http://www.w3.org/1999/xlink" viewBox="0 0 462 233.16" xmlns:v="https://vecta.io/nano"><defs><radialGradient id="A" cx="-45.33" cy="192.34" r="24.03" gradientTransform="matrix(-1, 0, 0, 1, 297.87, 0)" gradientUnits="userSpaceOnUse"><stop offset="0" stop-color="#fff"></stop><stop offset=".13" stop-color="#fbfcff"></stop><stop offset=".26" stop-color="#f0f3fe"></stop><stop offset=".38" stop-color="#dce3fe"></stop><stop offset=".5" stop-color="#c1cdfd"></stop><stop offset=".63" stop-color="#9db0fc"></stop><stop offset=".75" stop-color="#728dfa"></stop><stop offset=".87" stop-color="#3f64f8"></stop><stop offset=".99" stop-color="#0535f6"></stop><stop offset="1" stop-color="#0031f6"></stop></radialGradient><radialGradient id="B" cx="-51.34" cy="179.97" r="24.68" xlink:href="#A"></radialGradient><radialGradient id="C" cx="-38.86" cy="201.95" r="25.92" xlink:href="#A"></radialGradient><radialGradient id="D" cx="-27.49" cy="212.22" r="22.83" xlink:href="#A"></radialGradient><radialGradient id="E" cx="-15.28" cy="223.33" r="18.34" xlink:href="#A"></radialGradient><radialGradient id="F" cx="136.21" cy="164.33" r="84.07" gradientUnits="userSpaceOnUse"><stop offset="0" stop-color="#ff0316"></stop><stop offset=".08" stop-color="#fb0418"></stop><stop offset=".16" stop-color="#f0061d"></stop><stop offset=".23" stop-color="#dc0b25"></stop><stop offset=".3" stop-color="#c11131"></stop><stop offset=".38" stop-color="#9e1941"></stop><stop offset=".39" stop-color="#991a43"></stop><stop offset=".61" stop-color="#211ebb"></stop><stop offset=".65" stop-color="#1823cb"></stop><stop offset=".7" stop-color="#0d29de"></stop><stop offset=".77" stop-color="#062eec"></stop><stop offset=".85" stop-color="#0130f4"></stop><stop offset="1" stop-color="#0031f6"></stop></radialGradient><radialGradient id="G" cx="62.21" cy="91.67" r="29.24" gradientTransform="matrix(1, 0, 0, 1, 0, 0)" xlink:href="#A"></radialGradient><radialGradient id="H" cx="79.99" cy="120.13" r="30.95" gradientTransform="matrix(1, 0, 0, 1, 0, 0)" xlink:href="#A"></radialGradient><radialGradient id="I" cx="82.46" cy="135.4" r="32.78" gradientTransform="matrix(1, 0, 0, 1, 0, 0)" xlink:href="#A"></radialGradient><radialGradient id="J" cx="93.48" cy="152.29" r="24.96" gradientTransform="matrix(1, 0, 0, 1, 0, 0)" xlink:href="#A"></radialGradient><radialGradient id="K" cx="101.98" cy="167.61" r="26.64" gradientTransform="matrix(1, 0, 0, 1, 0, 0)" xlink:href="#A"></radialGradient><radialGradient id="L" cx="118.8" gradientTransform="matrix(1, 0, 0, 1, 0, 0)" xlink:href="#A"></radialGradient><radialGradient id="M" cx="112.79" cy="179.97" r="24.68" gradientTransform="matrix(1, 0, 0, 1, 0, 0)" xlink:href="#A"></radialGradient><radialGradient id="N" cx="125.27" cy="201.95" r="25.92" gradientTransform="matrix(1, 0, 0, 1, 0, 0)" xlink:href="#A"></radialGradient><radialGradient id="O" cx="136.64" cy="212.22" r="22.83" gradientTransform="matrix(1, 0, 0, 1, 0, 0)" xlink:href="#A"></radialGradient><radialGradient id="P" cx="148.85" cy="223.33" r="18.34" gradientTransform="matrix(1, 0, 0, 1, 0, 0)" xlink:href="#A"></radialGradient><radialGradient id="Q" cx="16.19" cy="41.88" r="31.75" gradientTransform="matrix(1, 0, 0, 1, 0, 0)" xlink:href="#A"></radialGradient><radialGradient id="R" cx="24.94" cy="83.18" r="24.95" gradientTransform="matrix(1, 0, 0, 1, 0, 0)" xlink:href="#A"></radialGradient><radialGradient id="S" cx="32.29" cy="110.05" r="29.25" gradientTransform="matrix(1, 0, 0, 1, 0, 0)" xlink:href="#A"></radialGradient><radialGradient id="T" cx="41.9" cy="136.16" r="28.53" gradientTransform="matrix(1, 0, 0, 1, 0, 0)" xlink:href="#A"></radialGradient><radialGradient id="U" cx="54.49" cy="161.45" r="29.32" gradientTransform="matrix(1, 0, 0, 1, 0, 0)" xlink:href="#A"></radialGradient><radialGradient id="V" cx="-27.92" gradientTransform="matrix(-1, 0, 0, 1, 297.87, 0)" xlink:href="#F"></radialGradient><radialGradient id="W" cx="-101.92" cy="91.67" r="29.24" xlink:href="#A"></radialGradient><radialGradient id="X" cx="-84.14" cy="120.13" r="30.95" xlink:href="#A"></radialGradient><radialGradient id="Y" cx="-81.67" cy="135.4" r="32.78" xlink:href="#A"></radialGradient><radialGradient id="Z" cx="-70.65" cy="152.29" r="24.96" xlink:href="#A"></radialGradient><radialGradient id="a" cx="-62.15" cy="167.61" r="26.64" xlink:href="#A"></radialGradient><radialGradient id="b" cx="-147.94" cy="41.88" r="31.75" xlink:href="#A"></radialGradient><radialGradient id="c" cx="-139.19" cy="83.18" r="24.95" xlink:href="#A"></radialGradient><radialGradient id="d" cx="-131.84" cy="110.05" r="29.25" xlink:href="#A"></radialGradient><radialGradient id="e" cx="-122.23" cy="136.16" r="28.53" xlink:href="#A"></radialGradient><radialGradient id="f" cx="-109.64" cy="161.45" r="29.32" xlink:href="#A"></radialGradient></defs><path d="M375.1 186s-11.5 14.6-34.1 19.92c-13.42 3.16-30.48 3.48-29.54 1.54 2.38-4.93 1.75-4.9 5.25-4.88s19.58 1.46 37.75-6.12c16-6.66 24.26-15.54 20.64-10.46z" fill="url(#A)"></path><path d="M318.3 197.86a26.71 26.71 0 0 1 3.17-4c1.35-1.53 4-1.44 5.22-1.5 32.28-1.22 47.9-15.83 53.42-20.46s2.13.2 2.13.2c-.6.76-6.9 10.28-22.48 18.74-14.57 7.92-35.94 8.6-40.8 7.93-.4-.1-1.04-.18-.65-.93z" fill="url(#B)"></path><path d="M303.86 214.2c2-1.84 3-2.87 5.42-2.62 4.2.45 29.68 2 55-12.5 1-.55 2.2-1.13 2.26-.8s-2.23 2.06-2.23 2.06h0c-8.65 6.45-28.3 17.38-60.47 15.75-.02-.02-1.95-.08.02-1.9z" fill="url(#C)"></path><path d="M303.12 218c-1.2-.12-3.62-.63-4.75.62a39.23 39.23 0 0 1-3.08 3.46c-1.06 1-1 1.88.88 2s31.1 2.64 51.83-9.7c5.25-3.12 4.28-3.28.37-1.87-7.62 2.7-26.5 7.33-45.25 5.5z" fill="url(#D)"></path><path d="M335.54 222.92c.85-.74 2.54-2.24-1.25-.84-8.75 3.25-24.5 6.67-42.8 4-2.24-.32-2.13-.4-4.75 1.13-2.8 1.62-9.88 4-.13 5.5s38.1-.46 48.92-9.8z" fill="url(#E)"></path><path d="M87.55 105.5s17.83 12.33 38.66 16.67S157 132 157.55 143c.5 10.5-6.17 14.33-8.5 15.67s-9.5 5.16 0 20.5 19.66 27.16 33 35.16 15.66 12.17 14 16.34-8.84 0-19.67-6.5-26-15.8-42.67-49.17c-1.16-2.33-3.17-9-9.83-15.17s-2-13-.83-16.5-4.67-3.16-9-5.5-25.34-15.16-26.5-32.33z" fill="url(#F)"></path><path d="M96 128s-8.08-7.38-11-17.63c-2-6.9-.75-7.37-4.25-9.75s-20-5.87-44-39.37c-2.62-3.67-3.34-5.75-4.87-4.88-1.75 1 7.62 46.88 52.75 70 0 0 14 6.63 14.37 5.13s-1.4-2.3-3-3.5z" fill="url(#G)"></path><path d="M40.46 89.42c.5 6.75 13.92 31.4 39.67 47.3 27.8 17.13 37.62 16 37.62 14.25 0-1.38-.75-3.5.75-5.13s1.63-3-1.37-4.37S88.7 136.3 65.5 117.2c-21.12-17.38-25.44-33.15-25.04-27.8z" fill="url(#H)"></path><path d="M45.3 107.75S49.7 126 79.7 146.67c21.68 14.93 38.83 16.87 39.67 16.37s-.7-3.62-1.6-6.62c-.46-1.6-2.66-.34-10.16-3.17C91.1 147 68.36 134.12 51.8 115c-2.16-2.5-6.25-7.92-6.5-7.25z" fill="url(#I)"></path><path d="M56.75 131.83c-.36 3.1 11.5 20 34.8 32.5C118.94 179 129.7 177 129.7 177a8.26 8.26 0 0 1-1.33-3.33c-.17-1.67 1-5.3-3.83-6.5-7.34-1.84-20.8-2.34-41.3-14.7C57.82 137.1 57 129.7 56.75 131.83z" fill="url(#J)"></path><path d="M69.82 152.65c7.25 5.75 10.85 11 31.87 20.54 22 10 29.08 4.92 32 9.83 0 0 5.66 5.72 4.5 6.5-2.08 1.42-24.12-1-40.08-10.08-21.1-12.03-31.94-29.68-28.3-26.8z" fill="url(#K)"></path><path d="M86.9 186s11.52 14.6 34.1 19.92c13.42 3.16 30.48 3.48 29.54 1.54-2.38-4.93-1.74-4.9-5.25-4.88s-19.57 1.46-37.75-6.12c-16-6.66-24.26-15.54-20.64-10.46z" fill="url(#L)"></path><path d="M143.72 197.86a26.8 26.8 0 0 0-3.18-4c-1.34-1.53-4-1.44-5.22-1.5-32.28-1.22-47.9-15.83-53.4-20.46s-2.13.2-2.13.2c.6.76 6.9 10.28 22.47 18.74 14.57 7.92 35.95 8.6 40.8 7.93.4-.1 1.05-.18.66-.93z" fill="url(#M)"></path><path d="M158.15 214.2c-2-1.84-3-2.87-5.42-2.62-4.2.45-29.7 2-55-12.5-1-.55-2.2-1.13-2.25-.8s2.22 2.06 2.22 2.06h0c8.66 6.45 28.3 17.38 60.47 15.75.01-.02 1.95-.08-.02-1.9z" fill="url(#N)"></path><path d="M158.88 218c1.2-.12 3.62-.63 4.75.62a39.23 39.23 0 0 0 3.08 3.46c1.06 1 1 1.88-.87 2s-31.1 2.64-51.84-9.7c-5.25-3.12-4.28-3.28-.37-1.87 7.62 2.7 26.5 7.33 45.25 5.5z" fill="url(#O)"></path><path d="M126.46 222.92c-.85-.74-2.53-2.24 1.25-.84 8.75 3.25 24.5 6.67 42.8 4 2.24-.32 2.14-.4 4.75 1.13 2.8 1.62 9.88 4 .13 5.5s-38.08-.46-48.92-9.8z" fill="url(#P)"></path><path d="M1.55 0C3.2.33 4.2 16.17 15.88 34.33c8.4 13.08 12 18 11.16 22.84a35.92 35.92 0 0 0 2.34 18c2.54 5.85 3.75 9.66 2.5 8.33-.83-.88-21.5-20.36-28-46C-2.8 11.17 1.06-.1 1.55 0z" fill="url(#Q)"></path><path d="M6.67 53.38c0-.88 1.08-.67 3 5 1 3 5.38 12.45 14.7 23.3s12 11.7 13.3 16.87 7.33 14.84 5 14.84-35-27.67-36-60z" fill="url(#R)"></path><path d="M7.38 79.83s4 22.34 25.16 43.5c18.5 18.5 25.5 21 24.84 19s-6.84-10.5-7.38-14.83-2.5-5.67-5.33-7.5-19.83-12.17-32.5-36.17c-2.33-4.5-5.96-10-4.8-4z" fill="url(#S)"></path><path d="M14.63 106.46s1.06 15.3 26.5 41.12c16.75 17 30.25 21.25 27.75 16.5l-7.13-13.62c-2.87-5.63-12.5.62-40.12-34.63-1.9-2.4-5.88-10-7-9.37z" fill="url(#T)"></path><path d="M24.38 135c1.08 5.92 7.83 23.33 22.67 37.17s36.33 18.5 37.5 17.5-2.84-2.17-5-7.34-5.17-9.83-8.34-11.16-15.08.33-40.16-29.67c-3.27-3.9-7.7-12.1-6.67-6.5z" fill="url(#U)"></path><path d="M374.46 105.5s-17.84 12.33-38.67 16.67S305 132 304.46 143c-.5 10.5 6.16 14.33 8.5 15.67s9.5 5.16 0 20.5-19.67 27.16-33 35.16-15.67 12.17-14 16.34 8.83 0 19.66-6.5 26-15.8 42.67-49.17c1.17-2.33 3.17-9 9.83-15.17s2-13 .84-16.5 4.66-3.16 9-5.5 25.33-15.16 26.5-32.33z" fill="url(#V)"></path><path d="M366 128s8.08-7.38 11-17.63c2-6.9.75-7.37 4.25-9.75s20-5.87 44-39.37c2.63-3.67 3.34-5.75 4.88-4.88 1.75 1-7.63 46.88-52.75 70 0 0-14 6.63-14.38 5.13s1.42-2.3 3-3.5z" fill="url(#W)"></path><path d="M421.54 89.42c-.5 6.75-13.92 31.4-39.67 47.3-27.8 17.13-37.62 16-37.62 14.25 0-1.38.75-3.5-.75-5.13s-1.63-3 1.37-4.37 28.43-5.17 51.63-24.25c21.12-17.38 25.44-33.15 25.04-27.8z" fill="url(#X)"></path><path d="M416.7 107.75S412.3 126 382.3 146.67c-21.68 14.93-38.83 16.87-39.67 16.37s.7-3.62 1.6-6.62c.47-1.6 2.66-.34 10.16-3.17C370.9 147 393.64 134.12 410.2 115c2.16-2.5 6.25-7.92 6.5-7.25z" fill="url(#Y)"></path><path d="M405.25 131.83c.37 3.1-11.5 20-34.8 32.5C343.06 179 332.3 177 332.3 177a8.26 8.26 0 0 0 1.33-3.33c.17-1.67-1-5.3 3.84-6.5 7.33-1.84 20.8-2.34 41.3-14.7 25.44-15.36 26.25-22.75 26.5-20.63z" fill="url(#Z)"></path><path d="M392.2 152.65c-7.25 5.75-10.86 11-31.88 20.54-22 10-29.08 4.92-32 9.83 0 0-5.65 5.72-4.5 6.5 2.1 1.42 24.13-1 40.1-10.08 21.1-12.03 31.93-29.68 28.3-26.8z" fill="url(#a)"></path><path d="M460.46 0c-1.67.33-2.67 16.17-14.34 34.33-8.4 13.08-12 18-11.16 22.84a35.92 35.92 0 0 1-2.34 18c-2.54 5.85-3.75 9.66-2.5 8.33.83-.88 21.5-20.36 28-46C464.8 11.17 461-.1 460.46 0z" fill="url(#b)"></path><path d="M455.33 53.38c0-.88-1.08-.67-3 5-1 3-5.37 12.45-14.7 23.3s-11.95 11.7-13.3 16.87-7.33 14.84-5 14.84 35-27.67 36-60z" fill="url(#c)"></path><path d="M454.62 79.83s-4 22.34-25.16 43.5c-18.5 18.5-25.5 21-24.84 19s6.84-10.5 7.34-14.83 2.5-5.67 5.33-7.5 19.83-12.17 32.5-36.17c2.38-4.5 6-10 4.83-4z" fill="url(#d)"></path><path d="M447.37 106.46s-1.05 15.3-26.5 41.12c-16.75 17-30.25 21.25-27.75 16.5l7.13-13.62c2.87-5.63 12.5.62 40.12-34.63 1.9-2.4 5.88-10 7-9.37z" fill="url(#e)"></path><path d="M437.62 135c-1.08 5.92-7.83 23.33-22.66 37.17s-36.34 18.5-37.5 17.5 2.83-2.17 5-7.34 5.16-9.83 8.33-11.16 15.08.33 40.17-29.67c3.26-3.9 7.7-12.1 6.66-6.5z" fill="url(#f)"></path><path d="M209.87 170.5l1.2.26-4.24 13.45h-38.4v-1.35h1.87a5 5 0 0 0 4.49-2.05c.52-.78.77-2.58.77-5.4v-32q0-4.65-1-5.82a5.38 5.38 0 0 0-4.24-1.6h-1.87v-1.36h22.43V136a13.65 13.65 0 0 0-5.54.73 4.44 4.44 0 0 0-2.17 1.93q-.58 1.17-.6 5.6v31.14a10.15 10.15 0 0 0 .59 4.17 2.58 2.58 0 0 0 1.35 1.13q.92.38 5.7.37h3.62q5.7 0 8-.84a10.48 10.48 0 0 0 4.21-3 24.8 24.8 0 0 0 3.8-6.72zm11.2 6.63a3.86 3.86 0 0 1 2.89 1.19 4.07 4.07 0 1 1-6.95 2.87 3.9 3.9 0 0 1 1.19-2.89 3.94 3.94 0 0 1 2.87-1.17zm42.2-9.5h-19.2l-3.37 7.83a12.52 12.52 0 0 0-1.24 4.31 2.49 2.49 0 0 0 1.08 2c.72.58 2.27.95 4.66 1.12v1.35h-15.6v-1.35c2.07-.37 3.4-.84 4-1.43 1.25-1.17 2.62-3.54 4.13-7.13l17.44-40.8h1.28l17.25 41.23q2.08 5 3.8 6.45a7.67 7.67 0 0 0 4.73 1.67v1.35h-19.54v-1.35a7.38 7.38 0 0 0 4-1 2.55 2.55 0 0 0 1-2 15.3 15.3 0 0 0-1.46-5.08zm-1-2.7l-8.4-20-8.63 20zm28.55 12.2a3.86 3.86 0 0 1 2.88 1.19 3.94 3.94 0 0 1 1.17 2.87 4.07 4.07 0 1 1-4-4.06zM156.78 52.05a93.46 93.46 0 0 0 17.67-12.22 175.06 175.06 0 0 0 18.6-18.89q2.65-3.1 6.26-7.52c2.5-3.07 3.93-4.6 4.3-4.6a.86.86 0 0 1 .6.24.77.77 0 0 1 .26.55c0 .07-.73 1.76-2.2 5.05s-2.9 6.7-4.32 10.18l-2.92 7.08q-6.82 16.25-7.34 21.23a126.92 126.92 0 0 1 7.73-14.29 86.65 86.65 0 0 1 8.57-11.4 49.24 49.24 0 0 1 6.91-6.58q3.57-2.78 4.6-2.77a.52.52 0 0 1 .31.09.26.26 0 0 1 .14.2q0 .34-1.8 1.65a61.75 61.75 0 0 0-15.84 16.77 122.27 122.27 0 0 0-6.87 12.26q-3.65 7.36-5.48 7.36c-1.1 0-2.07-.84-2.92-2.53a13.26 13.26 0 0 1-1.28-6q0-8.88 13.7-27.1 2.43-3.2 3.7-4.94l-4.8 5.35a170.05 170.05 0 0 1-24.26 23.7 129.53 129.53 0 0 1-12.22 8.43q-6 3.6-6.87 3.6a1.54 1.54 0 0 1-.9-.19.7.7 0 0 1-.26-.63c0-.38 1-1.54 2.86-3.5l5.2-5.64q8.72-10.14 12.7-17.52 4-7.38 4-13.2a6.09 6.09 0 0 0-1.57-4.5 6.05 6.05 0 0 0-4.45-1.57q-3.6 0-8.5 2.64a41.29 41.29 0 0 0-9.47 7.17 33.4 33.4 0 0 0-5.47 6.79 12 12 0 0 0-1.87 5.94 6 6 0 0 0 1.35 4 4.25 4.25 0 0 0 3.4 1.59q2.32 0 5.67-3a31.53 31.53 0 0 0 6.13-7.7 20.76 20.76 0 0 0 2.09-4.68 16.12 16.12 0 0 0 .68-4.6 6.59 6.59 0 0 0-.12-1.12 8.33 8.33 0 0 1-.11-.86 1.37 1.37 0 0 1 .13-.68.51.51 0 0 1 .4-.26c.57 0 1.06.75 1.46 2.25a22.4 22.4 0 0 1 .59 5.57 16.79 16.79 0 0 1-4.6 11.85 14 14 0 0 1-10.56 5 8 8 0 0 1-5.71-2 7 7 0 0 1-2.1-5.4 14.51 14.51 0 0 1 2.34-7.26 35.36 35.36 0 0 1 6.72-8 37.7 37.7 0 0 1 9.54-6.59 21.72 21.72 0 0 1 9.21-2.39 11.84 11.84 0 0 1 8.71 3.33 11.63 11.63 0 0 1 3.35 8.61q0 6.44-5.64 13.64-5.64 7.2-19.45 18.05zm53.46-13.63l-2.24 2.2-1.34 1.3c-1.08 1.08-1.73 1.6-2 1.6a1.26 1.26 0 0 1-.53-.09.3.3 0 0 1-.18-.28c0-.3.47-.86 1.42-1.7L207 40l2.47-2.47c.07-.08.2-.2.4-.4l3.4-3.7 8-.56L213.53 47q-1.75 3.2-2.68 5.13a8.46 8.46 0 0 0-.91 2.39.69.69 0 0 0 .18.49.7.7 0 0 0 .49.19c.7 0 1.93-.7 3.7-2.12a79.52 79.52 0 0 0 6.61-6.16q6.9-7 9.4-9c1.68-1.38 2.9-2.08 3.64-2.08a4.79 4.79 0 0 1 .56.12h.3q-3 1.57-9.55 8.54L221.9 48a54.74 54.74 0 0 1-7.88 7.08 9.68 9.68 0 0 1-5.3 1.92 4.44 4.44 0 0 1-3.39-1.3 5.05 5.05 0 0 1-1.21-3.61q0-3 4.9-11.5l1.24-2.18zm7-13.36a3.62 3.62 0 0 1 1.29-2.7 4.16 4.16 0 0 1 2.9-1.2 3.06 3.06 0 0 1 2.23.83 2.9 2.9 0 0 1 .84 2.17 3.79 3.79 0 0 1-1.2 2.84 3.93 3.93 0 0 1-2.84 1.18 3.28 3.28 0 0 1-2.38-.81 3 3 0 0 1-.84-2.31z"></path><path d="M238.62 44.3a62.29 62.29 0 0 1 8.76-8.67q3.7-2.82 6.25-2.82a4.16 4.16 0 0 1 3.5 1.63 7.26 7.26 0 0 1 1.25 4.56 10.31 10.31 0 0 1-1.12 4.47 42.41 42.41 0 0 1-4.53 6.72l-1.12 1.4c-1.05 1.27-1.58 2.14-1.58 2.62a.59.59 0 0 0 .23.48.88.88 0 0 0 .6.19c.62 0 1.7-.57 3.24-1.7a60.13 60.13 0 0 0 5.52-4.81l1.46-1.43q11.4-11.07 13.25-11.08a3.1 3.1 0 0 1 .56.12h.3q-2.8 1.47-11.45 10.2l-1.4 1.4q-9.2 9.3-13.1 9.32a4.31 4.31 0 0 1-3.52-1.72 6.92 6.92 0 0 1-1.39-4.49 9.58 9.58 0 0 1 1-4.08 29.49 29.49 0 0 1 3.68-5.52l2.2-2.62c1.55-1.8 2.32-2.86 2.32-3.18a.67.67 0 0 0-.17-.51.9.9 0 0 0-.58-.2q-2.88 0-8.63 5.88a123.06 123.06 0 0 0-12.71 16l-10.1.53 6-8.8q2.88-4.23 4.2-6.48a8.4 8.4 0 0 0 1.31-3 1 1 0 0 0-.13-.56.55.55 0 0 0-.39-.22c-.45 0-1.4.7-2.8 2.1s-2.36 2.12-2.8 2.12a.45.45 0 0 1-.26-.08c-.08-.05-.1-.1-.1-.15a1.58 1.58 0 0 1 .35-.88 12 12 0 0 1 1.18-1.33 49.87 49.87 0 0 1 5.54-5.2 6.53 6.53 0 0 1 3.52-1.65 2.64 2.64 0 0 1 2.27 1.35 6.49 6.49 0 0 1 .88 3.56 14.12 14.12 0 0 1-.37 3.23 21.64 21.64 0 0 1-1.08 3.3z"></path><path d="M276.76 57.52l5.24-9.36a33.3 33.3 0 0 1-6.39 6.72 9.57 9.57 0 0 1-5.59 2 6.39 6.39 0 0 1-4.8-1.88 6.82 6.82 0 0 1-1.86-5 11.89 11.89 0 0 1 1.71-6.17A22.13 22.13 0 0 1 270.4 38a30.73 30.73 0 0 1 6.33-3.87 13.94 13.94 0 0 1 5.58-1.33 6.58 6.58 0 0 1 3.95 1.07 4.74 4.74 0 0 1 1.85 3.13l2.1-3.6 7.57-.63L285.6 54.9a24.72 24.72 0 0 0 5.56-3 71.25 71.25 0 0 0 7.17-5.67l5.4-5.06q5.58-5.38 7.2-5.4a4.79 4.79 0 0 1 .56.12h.26q-2.66 1.62-11.1 9.9-8.44 8.27-16.27 10.94-6.14 11.87-11.55 17.32-5.4 5.45-10.9 5.44a7.85 7.85 0 0 1-5.13-1.61 5 5 0 0 1-2-4q0-4.6 5.43-8.65 5.43-4.04 16.56-7.7zm-.52 1.53a41.82 41.82 0 0 0-13.5 7.17q-5.22 4.36-5.22 8.14a3.45 3.45 0 0 0 1 2.66 4 4 0 0 0 2.85.94c1.92 0 4-1.4 6.23-4.2s5.12-7.75 8.64-14.7zm10.52-21.5a3.07 3.07 0 0 0-.82-2.21 2.8 2.8 0 0 0-2.1-.86c-.95 0-2.13.68-3.56 2a47.67 47.67 0 0 0-5.2 6.26 72.61 72.61 0 0 0-4.57 7 10.55 10.55 0 0 0-1.65 4.3 1.84 1.84 0 0 0 .42 1.31 1.52 1.52 0 0 0 1.19.45 7.59 7.59 0 0 0 4.12-1.74 28.43 28.43 0 0 0 5-4.77 56.28 56.28 0 0 0 5.2-7.06q1.97-3.17 1.97-4.68z"></path><path d="M310.35 36.8a31.86 31.86 0 0 0-4.87 4.31c-1.67 1.77-2.68 2.66-3 2.66a.58.58 0 0 1-.43-.17.56.56 0 0 1-.17-.43c0-.3.57-1 1.72-2.06l1.24-1.12 2.3-2.17 1.12-1a30.71 30.71 0 0 0 3.33-3.45c.18-.27.4-.66.68-1.16.57-1 1.1-1.53 1.57-1.53a.92.92 0 0 1 .62.26.8.8 0 0 1 .28.56c0 .2-.33.67-1 1.4a3.09 3.09 0 0 0-1 1.89c0 .45.7 1.73 2.12 3.85a12.1 12.1 0 0 1 2.15 6.73 7.91 7.91 0 0 1-.62 3.2 11.89 11.89 0 0 1-2.07 3.09q4.7-3.7 11.1-9.8 6.4-6.1 8-6.1a2.12 2.12 0 0 0 1.24-.3c-.05 0-.1 0-.17.12a2.3 2.3 0 0 0-.25.33q-3 1.65-8.23 7.12l-3 3Q316.07 53 312.52 55a14.38 14.38 0 0 1-7.23 2 7.77 7.77 0 0 1-4.85-1.5 4.44 4.44 0 0 1-2-3.63 3.28 3.28 0 0 1 .95-2.39 3.16 3.16 0 0 1 2.34-1 2.6 2.6 0 0 1 2 .77 2.91 2.91 0 0 1 .73 2.08 2.63 2.63 0 0 1-.73 1.78 2.16 2.16 0 0 1-1.59.8 3.22 3.22 0 0 1-.58 0 2.31 2.31 0 0 1-.47-.11 3.73 3.73 0 0 0 1.18.94 3 3 0 0 0 1.33.3q3 0 4.88-4.46 1.88-4.46 1.86-11.87zm-118.43 68.82a16.72 16.72 0 0 1 3.15-9.21 35.79 35.79 0 0 1 8.94-9 34.9 34.9 0 0 1 7.11-4.1 16.43 16.43 0 0 1 6.19-1.46 6.05 6.05 0 0 1 3.86 1.15 3.79 3.79 0 0 1 1.4 3.12 4.75 4.75 0 0 1-.16 1.39c-.1.3-.28.46-.52.46a.2.2 0 0 1-.18-.14 1.18 1.18 0 0 1-.06-.44s0-.18.07-.45a3.86 3.86 0 0 0 .08-.72 3.22 3.22 0 0 0-1.14-2.59 4.47 4.47 0 0 0-3-1c-2.47 0-5.08 1.15-7.8 3.43a36 36 0 0 0-7.71 9.69 68.34 68.34 0 0 0-4.34 8.53 16.78 16.78 0 0 0-1.5 5.86 3.35 3.35 0 0 0 .83 2.47 3.31 3.31 0 0 0 2.44.83 10.85 10.85 0 0 0 6.2-2.47 29.05 29.05 0 0 0 6.42-6.79 43.44 43.44 0 0 0 4.33-7.59 16.16 16.16 0 0 0 1.66-5.85 2.92 2.92 0 0 0-.55-1.94 2 2 0 0 0-1.65-.65c-1.66 0-3.6 1.26-5.8 3.8a39.73 39.73 0 0 0-6.08 10 28.85 28.85 0 0 0-1.77 4.94c-.42 1.6-.72 2.42-.9 2.42a.31.31 0 0 1-.3-.22 1.25 1.25 0 0 1-.1-.56 15.8 15.8 0 0 1 1.21-4.62 42 42 0 0 1 3.18-6.68 29.11 29.11 0 0 1 5.58-7.18c1.9-1.7 3.65-2.56 5.28-2.56a3 3 0 0 1 2.47 1.22 5.14 5.14 0 0 1 1 3.22 15.32 15.32 0 0 1-1.93 6.69 35.51 35.51 0 0 1-5.38 7.68 30.73 30.73 0 0 1-6.81 5.92 12 12 0 0 1-6.21 2 6.73 6.73 0 0 1-5.42-2.32 9.25 9.25 0 0 1-2.08-6.28zm38.36 3.8a5.15 5.15 0 0 1-1-1.45 4 4 0 0 1-.35-1.62 9.43 9.43 0 0 1 1.81-5.51c1.2-1.72 2.4-2.57 3.56-2.57a1.62 1.62 0 0 1 1.4.65 3.12 3.12 0 0 1 .49 1.92 7.63 7.63 0 0 1-1 3.58 25.83 25.83 0 0 1-3.34 4.57h.45q2.07 0 6.2-3.9h.05q2.83-2.75 4.2-3.8a4.05 4.05 0 0 1 2-1.06l.38.08h.17a43.91 43.91 0 0 0-6.37 5.55q-4 4.05-6.75 4a8.35 8.35 0 0 1-.9-.07.66.66 0 0 0-.17 0 18.66 18.66 0 0 1-4.08 3.35 7.62 7.62 0 0 1-3.78 1.08 4.58 4.58 0 0 1-3.23-1.09 3.88 3.88 0 0 1-1.18-3 9 9 0 0 1 1.84-4.72 12 12 0 0 0 1.85-3.28.38.38 0 0 0-.09-.24.28.28 0 0 0-.21-.11c-.23 0-.8.45-1.73 1.35s-1.53 1.34-1.8 1.34a.28.28 0 0 1-.18-.06.17.17 0 0 1-.07-.14c0-.25.75-1.15 2.27-2.72l.27-.3a21.18 21.18 0 0 1 2.72-2.49 2.78 2.78 0 0 1 1.52-.52 2 2 0 0 1 1.66.83 3.8 3.8 0 0 1 .61 2.29 7.4 7.4 0 0 1-.6 2.75 31.75 31.75 0 0 1-2.52 4.5l-.6.9a8.55 8.55 0 0 0-1.6 3.29.52.52 0 0 0 .22.46 1.15 1.15 0 0 0 .68.17 7.33 7.33 0 0 0 3.54-1 15.57 15.57 0 0 0 3.68-2.99zm.62-.73a29.64 29.64 0 0 0 2.89-3.73 5.29 5.29 0 0 0 1-2.4.68.68 0 0 0-.23-.54.89.89 0 0 0-.61-.21 3.66 3.66 0 0 0-2.7 1.48 4.7 4.7 0 0 0-1.25 3.11 3.3 3.3 0 0 0 .22 1.22 3.24 3.24 0 0 0 .68 1.07z"></path><path d="M243.05 108.64l-.8 2.4a4.82 4.82 0 0 0-.23 1.21.81.81 0 0 0 .38.75 2.35 2.35 0 0 0 1.17.22 8.84 8.84 0 0 0 4.16-1.16 36.37 36.37 0 0 0 6.19-4.65q1.32-1.14 3.5-3.12 4.54-4.14 5.56-4.14h.23l.27.06a28.46 28.46 0 0 0-5 4.22l-2.66 2.6a44.58 44.58 0 0 1-7.41 5.81 10.24 10.24 0 0 1-4.94 1.37 5.81 5.81 0 0 1-4.13-1.45 5 5 0 0 1-1.56-3.81 7.2 7.2 0 0 1 1.17-3.85 14.53 14.53 0 0 1 3.55-3.7 17.83 17.83 0 0 1 4.03-2.4 9.72 9.72 0 0 1 3.73-.86 3.24 3.24 0 0 1 2.4.86 3.16 3.16 0 0 1 .87 2.36q0 2.4-2.92 4.43a18.06 18.06 0 0 1-7.55 2.85zm.3-.82a10.37 10.37 0 0 0 5.59-2.74q2.44-2.28 2.45-4.4a1.66 1.66 0 0 0-.34-1 1 1 0 0 0-.79-.42c-.85 0-2 .83-3.38 2.48a21.74 21.74 0 0 0-3.53 6.07z"></path><path d="M266.9 101l-2.06.2-1 .06h-.18a6.43 6.43 0 0 0-.8-.06H262l-2 1.9-1.13 1.12c-.78.82-1.3 1.23-1.54 1.23a.37.37 0 0 1-.29-.12.36.36 0 0 1-.11-.28c0-.2.45-.7 1.34-1.57l1.05-1.05 1.8-1.75.05-.2c.6-2.3 1.07-3.46 1.42-3.46a.56.56 0 0 1 .47.19 1.08 1.08 0 0 1 .15.63v.24a2.75 2.75 0 0 0 0 .38.93.93 0 0 0 .41.87 7.21 7.21 0 0 0 2.26.45 8.58 8.58 0 0 1 3.47.89 2 2 0 0 1 1 1.86q0 1.17-3 5.2l-.87 1.17-.42.58c-1.15 1.56-1.73 2.56-1.73 3a.3.3 0 0 0 .14.25.55.55 0 0 0 .34.1q.94 0 6.8-5.7l.65-.62q3.54-3.52 5.3-5a5.38 5.38 0 0 1 2.49-1.44l.38.08h.17c-1.33.72-3.38 2.52-6.16 5.42l-1.8 1.84-.35.35q-6.27 6.33-8.7 6.33a3.21 3.21 0 0 1-2.46-1 3.74 3.74 0 0 1-.91-2.64 9.34 9.34 0 0 1 1.9-5.09 14.52 14.52 0 0 1 4.75-4.35z"></path><path d="M342.82 6.4h-3.66v12a2.22 2.22 0 0 1-.46 1.6 1.69 1.69 0 0 1-2.41 0 2.21 2.21 0 0 1-.47-1.53V6.4h-3.66a1.8 1.8 0 0 1-1.27-.4 1.27 1.27 0 0 1-.42-1 1.27 1.27 0 0 1 .43-1 1.88 1.88 0 0 1 1.26-.37h10.66a1.84 1.84 0 0 1 1.29.38 1.27 1.27 0 0 1 .43 1 1.28 1.28 0 0 1-.43 1 1.88 1.88 0 0 1-1.29.39zm9.33 11.3L349.5 7.15v11.42a2.08 2.08 0 0 1-.42 1.42 1.44 1.44 0 0 1-1.13.48 1.42 1.42 0 0 1-1.1-.47 2 2 0 0 1-.43-1.43V5.48A1.67 1.67 0 0 1 347 4a2.75 2.75 0 0 1 1.53-.37h1a3.83 3.83 0 0 1 1.36.17 1.09 1.09 0 0 1 .62.61 8.6 8.6 0 0 1 .49 1.44l2.4 9.06 2.4-9.06a9.44 9.44 0 0 1 .47-1.43 1.09 1.09 0 0 1 .62-.61 3.83 3.83 0 0 1 1.36-.17h1a2.75 2.75 0 0 1 1.53.37 1.67 1.67 0 0 1 .56 1.47v13.1A2.08 2.08 0 0 1 362 20a1.44 1.44 0 0 1-1.14.48 1.39 1.39 0 0 1-1.09-.48 2 2 0 0 1-.43-1.42V7.15L356.7 17.7l-.43 1.5a2.07 2.07 0 0 1-.6.87 1.73 1.73 0 0 1-1.22.4 1.91 1.91 0 0 1-1-.25 1.89 1.89 0 0 1-.64-.65 4 4 0 0 1-.35-.88c-.12-.32-.2-.7-.3-1z" fill="#231f20"></path></svg>